# xmcd
#
# Track frame offsets: 
#        150
#        17945
#        79626
#        160143
#        212523
#        224061
#        255732
#
# Disc length: 3756 seconds
#
# Revision: 0
# Processed by: cddbd v1.5.2PL0 Copyright (c) Steve Scherf et al.
# Submitted via: ExactAudioCopyFreeDBPlugin 1.0
#
DISCID=5d0eaa07
DTITLE=Richard Tucker - America's best tenor - CD6
DYEAR=1900
DGENRE=Opera
TTITLE0=Richard Tucker (Cavaradossi), Fernando Corena (Sagrestano), Or
TTITLE0=chestra of the Metropolitan Opera House, Cond. Dimitri Mitropo
TTITLE0=ulos (1956) - Puccini - Tosca - Dammi colorí! - Recondita armo
TTITLE0=nia
TTITLE1=Richard Tucker (Cavaradossi), Renata Tebaldi (Tosca), Orchestr
TTITLE1=a of the Metropolitan Opera House, Cond. Dimitri Mitropoulos (
TTITLE1=1956) - Puccini - Tosca - Mario! Mario! Son qui - Non la sospi
TTITLE1=ri la nostra casetta - Quale occhio al mondo
TTITLE2=Richard Tucker (Cavaradossi), Calvin Marsh (Carceriere), Renat
TTITLE2=a Tebaldi (Tosca), Orchestra of the Metropolitan Opera House, 
TTITLE2=Cond. Dimitri Mitropoulos (1956) - Puccini - Tosca - Mario Cav
TTITLE2=aradossi? - A voi - E lucevan le stelle - Franchigia a Floria 
TTITLE2=Tosca - O dolci mani mansuete e pure - Trionfal, di nuova spem
TTITLE2=e
TTITLE3=Richard Tucker, Ljuba Welitsch (Tosca), Orchestra of the Metro
TTITLE3=politan Opera House, Cond. Max Rudolf (1950) - Puccini - Tosca
TTITLE3=Perché chiuso? - Non la sospiri la nostra casetta - Quale o
TTITLE3=cchio al mondo
TTITLE4=Richard Tucker, Columbia Symphony Orchestra, Cond. Fausto Clev
TTITLE4=a (1955) - Puccini - Manon Lescaut - Donna non vidi mai
TTITLE5=Richard Tucker, Dorothy Kirsten (Manon), Orchestra of the Metr
TTITLE5=opolitan Opera House, Cond. Fausto Cleva (1954) - Puccini - Ma
TTITLE5=non Lescaut - Tu, tu, amore?
TTITLE6=Richard Tucker, Dorothy Kirsten (Manon), Orchestra of the Metr
TTITLE6=opolitan Opera House, Cond. Fausto Cleva (1954) - Puccini - Ma
TTITLE6=non Lescaut - Fra le tue braccia amore
EXTD=
EXTT0=
EXTT1=
EXTT2=
EXTT3=
EXTT4=
EXTT5=
EXTT6=
PLAYORDER=
